<?xml version="1.0" encoding="UTF-8" standalone="no"?>
<!DOCTYPE svg PUBLIC "-//W3C//DTD SVG 1.1//EN" "http://www.w3.org/Graphics/SVG/1.1/DTD/svg11.dtd">
<svg width="100%" height="100%" viewBox="0 0 1200 630" version="1.1" xmlns="http://www.w3.org/2000/svg" xmlns:xlink="http://www.w3.org/1999/xlink" xml:space="preserve" xmlns:serif="http://www.serif.com/" style="fill-rule:evenodd;clip-rule:evenodd;stroke-linecap:round;stroke-linejoin:round;stroke-miterlimit:1.5;">
    <g transform="matrix(1.427337,0,0,1.427337,-256.402112,-119.714813)">
        <g transform="matrix(2.264733,0,0,2.264733,-1327.280948,-455.004009)">
            <g>
                <g transform="matrix(12,0,0,12,689.120035,409.61101)">
                    <path d="M0.036,-0.233L0.177,-0.247C0.185,-0.199 0.202,-0.165 0.228,-0.143C0.254,-0.12 0.289,-0.109 0.333,-0.109C0.38,-0.109 0.415,-0.119 0.438,-0.139C0.462,-0.159 0.474,-0.182 0.474,-0.208C0.474,-0.225 0.469,-0.239 0.459,-0.251C0.449,-0.263 0.431,-0.273 0.407,-0.282C0.39,-0.288 0.351,-0.299 0.291,-0.313C0.214,-0.333 0.159,-0.356 0.128,-0.384C0.084,-0.424 0.062,-0.472 0.062,-0.528C0.062,-0.565 0.072,-0.599 0.093,-0.631C0.114,-0.662 0.143,-0.687 0.182,-0.703C0.221,-0.72 0.268,-0.728 0.323,-0.728C0.413,-0.728 0.481,-0.708 0.526,-0.669C0.572,-0.63 0.595,-0.577 0.598,-0.511L0.453,-0.505C0.447,-0.542 0.434,-0.568 0.413,-0.584C0.393,-0.6 0.362,-0.608 0.322,-0.608C0.28,-0.608 0.247,-0.6 0.223,-0.583C0.208,-0.571 0.2,-0.557 0.2,-0.538C0.2,-0.521 0.207,-0.507 0.222,-0.495C0.24,-0.479 0.284,-0.463 0.354,-0.447C0.425,-0.43 0.477,-0.413 0.51,-0.395C0.544,-0.378 0.571,-0.353 0.59,-0.323C0.609,-0.292 0.618,-0.254 0.618,-0.208C0.618,-0.167 0.607,-0.129 0.584,-0.093C0.561,-0.057 0.529,-0.031 0.487,-0.013C0.446,0.004 0.394,0.013 0.332,0.013C0.241,0.013 0.172,-0.008 0.123,-0.05C0.075,-0.092 0.046,-0.153 0.036,-0.233Z" style="fill:rgb(153,153,153);fill-rule:nonzero;"/>
                </g>
                <g transform="matrix(12,0,0,12,697.123942,409.61101)">
                    <path d="M0.072,-0.716L0.216,-0.716L0.216,-0.328C0.216,-0.267 0.218,-0.227 0.222,-0.208C0.228,-0.179 0.243,-0.156 0.266,-0.138C0.289,-0.12 0.321,-0.111 0.361,-0.111C0.402,-0.111 0.433,-0.12 0.454,-0.136C0.475,-0.153 0.487,-0.174 0.492,-0.198C0.496,-0.223 0.498,-0.263 0.498,-0.32L0.498,-0.716L0.643,-0.716L0.643,-0.34C0.643,-0.254 0.639,-0.193 0.631,-0.158C0.623,-0.122 0.609,-0.092 0.588,-0.068C0.567,-0.043 0.539,-0.024 0.503,-0.01C0.468,0.005 0.422,0.012 0.366,0.012C0.297,0.012 0.246,0.004 0.21,-0.011C0.175,-0.027 0.147,-0.048 0.126,-0.073C0.106,-0.098 0.092,-0.125 0.086,-0.152C0.076,-0.193 0.072,-0.254 0.072,-0.334L0.072,-0.716Z" style="fill:rgb(153,153,153);fill-rule:nonzero;"/>
                </g>
                <g transform="matrix(12,0,0,12,705.789957,409.61101)">
                    <path d="M0.071,-0L0.071,-0.716L0.287,-0.716L0.417,-0.228L0.545,-0.716L0.762,-0.716L0.762,-0L0.628,-0L0.628,-0.563L0.486,-0L0.347,-0L0.205,-0.563L0.205,-0L0.071,-0Z" style="fill:rgb(153,153,153);fill-rule:nonzero;"/>
                </g>
                <g transform="matrix(12,0,0,12,715.786051,409.61101)">
                    <path d="M0.073,-0L0.073,-0.716L0.604,-0.716L0.604,-0.595L0.217,-0.595L0.217,-0.436L0.577,-0.436L0.577,-0.315L0.217,-0.315L0.217,-0.121L0.617,-0.121L0.617,-0L0.073,-0Z" style="fill:rgb(153,153,153);fill-rule:nonzero;"/>
                </g>
                <g transform="matrix(12,0,0,12,723.789957,409.61101)">
                    <path d="M0.036,-0.233L0.177,-0.247C0.185,-0.199 0.202,-0.165 0.228,-0.143C0.254,-0.12 0.289,-0.109 0.333,-0.109C0.38,-0.109 0.415,-0.119 0.438,-0.139C0.462,-0.159 0.474,-0.182 0.474,-0.208C0.474,-0.225 0.469,-0.239 0.459,-0.251C0.449,-0.263 0.431,-0.273 0.407,-0.282C0.39,-0.288 0.351,-0.299 0.291,-0.313C0.214,-0.333 0.159,-0.356 0.128,-0.384C0.084,-0.424 0.062,-0.472 0.062,-0.528C0.062,-0.565 0.072,-0.599 0.093,-0.631C0.114,-0.662 0.143,-0.687 0.182,-0.703C0.221,-0.72 0.268,-0.728 0.323,-0.728C0.413,-0.728 0.481,-0.708 0.526,-0.669C0.572,-0.63 0.595,-0.577 0.598,-0.511L0.453,-0.505C0.447,-0.542 0.434,-0.568 0.413,-0.584C0.393,-0.6 0.362,-0.608 0.322,-0.608C0.28,-0.608 0.247,-0.6 0.223,-0.583C0.208,-0.571 0.2,-0.557 0.2,-0.538C0.2,-0.521 0.207,-0.507 0.222,-0.495C0.24,-0.479 0.284,-0.463 0.354,-0.447C0.425,-0.43 0.477,-0.413 0.51,-0.395C0.544,-0.378 0.571,-0.353 0.59,-0.323C0.609,-0.292 0.618,-0.254 0.618,-0.208C0.618,-0.167 0.607,-0.129 0.584,-0.093C0.561,-0.057 0.529,-0.031 0.487,-0.013C0.446,0.004 0.394,0.013 0.332,0.013C0.241,0.013 0.172,-0.008 0.123,-0.05C0.075,-0.092 0.046,-0.153 0.036,-0.233Z" style="fill:rgb(153,153,153);fill-rule:nonzero;"/>
                </g>
                <g transform="matrix(12,0,0,12,731.793864,409.61101)">
                    <path d="M0.073,-0L0.073,-0.716L0.218,-0.716L0.218,-0.434L0.501,-0.434L0.501,-0.716L0.646,-0.716L0.646,-0L0.501,-0L0.501,-0.313L0.218,-0.313L0.218,-0L0.073,-0Z" style="fill:rgb(153,153,153);fill-rule:nonzero;"/>
                </g>
                <g transform="matrix(12,0,0,12,740.459879,409.61101)">
                    <rect x="0.068" y="-0.716" width="0.145" height="0.716" style="fill:rgb(153,153,153);fill-rule:nonzero;"/>
                </g>
                <g transform="matrix(12,0,0,12,747.127848,409.61101)">
                    <rect x="0.068" y="-0.716" width="0.145" height="0.716" style="fill:rgb(153,153,153);fill-rule:nonzero;"/>
                </g>
                <g transform="matrix(12,0,0,12,750.461832,409.61101)">
                    <path d="M0.074,-0L0.074,-0.716L0.215,-0.716L0.508,-0.238L0.508,-0.716L0.642,-0.716L0.642,-0L0.497,-0L0.208,-0.467L0.208,-0L0.074,-0Z" style="fill:rgb(153,153,153);fill-rule:nonzero;"/>
                </g>
                <g transform="matrix(12,0,0,12,759.127848,409.61101)">
                    <path d="M0.074,-0L0.074,-0.716L0.564,-0.716L0.564,-0.595L0.218,-0.595L0.218,-0.425L0.517,-0.425L0.517,-0.304L0.218,-0.304L0.218,-0L0.074,-0Z" style="fill:rgb(153,153,153);fill-rule:nonzero;"/>
                </g>
                <g transform="matrix(12,0,0,12,766.457926,409.61101)">
                    <path d="M0.043,-0.354C0.043,-0.426 0.054,-0.488 0.076,-0.537C0.092,-0.574 0.115,-0.606 0.143,-0.635C0.171,-0.664 0.202,-0.686 0.235,-0.7C0.28,-0.719 0.331,-0.728 0.39,-0.728C0.495,-0.728 0.58,-0.695 0.643,-0.63C0.706,-0.564 0.738,-0.473 0.738,-0.357C0.738,-0.241 0.706,-0.151 0.644,-0.086C0.581,-0.02 0.497,0.012 0.392,0.012C0.285,0.012 0.201,-0.02 0.138,-0.085C0.075,-0.15 0.043,-0.24 0.043,-0.354ZM0.192,-0.358C0.192,-0.277 0.211,-0.216 0.249,-0.174C0.286,-0.132 0.333,-0.111 0.391,-0.111C0.449,-0.111 0.496,-0.132 0.533,-0.174C0.57,-0.215 0.588,-0.277 0.588,-0.36C0.588,-0.442 0.57,-0.504 0.534,-0.544C0.498,-0.584 0.451,-0.604 0.391,-0.604C0.332,-0.604 0.284,-0.584 0.247,-0.543C0.211,-0.502 0.192,-0.441 0.192,-0.358Z" style="fill:rgb(153,153,153);fill-rule:nonzero;"/>
                </g>
                <g transform="matrix(12,0,0,12,775.79191,409.61101)">
                    <path d="M0.073,-0L0.073,-0.716L0.377,-0.716C0.454,-0.716 0.51,-0.709 0.544,-0.697C0.579,-0.684 0.607,-0.661 0.627,-0.628C0.648,-0.595 0.659,-0.557 0.659,-0.515C0.659,-0.461 0.643,-0.417 0.611,-0.382C0.58,-0.347 0.533,-0.325 0.47,-0.316C0.501,-0.298 0.527,-0.278 0.547,-0.256C0.567,-0.234 0.595,-0.195 0.629,-0.14L0.717,-0L0.544,-0L0.439,-0.156C0.402,-0.211 0.377,-0.247 0.363,-0.261C0.35,-0.275 0.335,-0.285 0.32,-0.291C0.305,-0.296 0.28,-0.299 0.247,-0.299L0.218,-0.299L0.218,-0L0.073,-0ZM0.218,-0.413L0.325,-0.413C0.394,-0.413 0.437,-0.416 0.455,-0.422C0.472,-0.428 0.485,-0.438 0.495,-0.452C0.505,-0.466 0.51,-0.484 0.51,-0.506C0.51,-0.53 0.503,-0.549 0.49,-0.564C0.478,-0.579 0.459,-0.588 0.436,-0.592C0.424,-0.594 0.389,-0.595 0.331,-0.595L0.218,-0.595L0.218,-0.413Z" style="fill:rgb(153,153,153);fill-rule:nonzero;"/>
                </g>
                <g transform="matrix(12,0,0,12,784.457926,409.61101)">
                    <path d="M0.071,-0L0.071,-0.716L0.287,-0.716L0.417,-0.228L0.545,-0.716L0.762,-0.716L0.762,-0L0.628,-0L0.628,-0.563L0.486,-0L0.347,-0L0.205,-0.563L0.205,-0L0.071,-0Z" style="fill:rgb(153,153,153);fill-rule:nonzero;"/>
                </g>
                <g transform="matrix(12,0,0,12,794.45402,409.61101)">
                    <path d="M0.718,-0L0.561,-0L0.499,-0.163L0.212,-0.163L0.153,-0L0,-0L0.279,-0.716L0.432,-0.716L0.718,-0ZM0.452,-0.283L0.354,-0.549L0.257,-0.283L0.452,-0.283Z" style="fill:rgb(153,153,153);fill-rule:nonzero;"/>
                </g>
                <g transform="matrix(12,0,0,12,802.22941,409.61101)">
                    <path d="M0.234,-0L0.234,-0.595L0.021,-0.595L0.021,-0.716L0.59,-0.716L0.59,-0.595L0.378,-0.595L0.378,-0L0.234,-0Z" style="fill:rgb(153,153,153);fill-rule:nonzero;"/>
                </g>
                <g transform="matrix(12,0,0,12,809.559489,409.61101)">
                    <rect x="0.068" y="-0.716" width="0.145" height="0.716" style="fill:rgb(153,153,153);fill-rule:nonzero;"/>
                </g>
                <g transform="matrix(12,0,0,12,812.893473,409.61101)">
                    <path d="M0.043,-0.354C0.043,-0.426 0.054,-0.488 0.076,-0.537C0.092,-0.574 0.115,-0.606 0.143,-0.635C0.171,-0.664 0.202,-0.686 0.235,-0.7C0.28,-0.719 0.331,-0.728 0.39,-0.728C0.495,-0.728 0.58,-0.695 0.643,-0.63C0.706,-0.564 0.738,-0.473 0.738,-0.357C0.738,-0.241 0.706,-0.151 0.644,-0.086C0.581,-0.02 0.497,0.012 0.392,0.012C0.285,0.012 0.201,-0.02 0.138,-0.085C0.075,-0.15 0.043,-0.24 0.043,-0.354ZM0.192,-0.358C0.192,-0.277 0.211,-0.216 0.249,-0.174C0.286,-0.132 0.333,-0.111 0.391,-0.111C0.449,-0.111 0.496,-0.132 0.533,-0.174C0.57,-0.215 0.588,-0.277 0.588,-0.36C0.588,-0.442 0.57,-0.504 0.534,-0.544C0.498,-0.584 0.451,-0.604 0.391,-0.604C0.332,-0.604 0.284,-0.584 0.247,-0.543C0.211,-0.502 0.192,-0.441 0.192,-0.358Z" style="fill:rgb(153,153,153);fill-rule:nonzero;"/>
                </g>
                <g transform="matrix(12,0,0,12,822.227457,409.61101)">
                    <path d="M0.074,-0L0.074,-0.716L0.215,-0.716L0.508,-0.238L0.508,-0.716L0.642,-0.716L0.642,-0L0.497,-0L0.208,-0.467L0.208,-0L0.074,-0Z" style="fill:rgb(153,153,153);fill-rule:nonzero;"/>
                </g>
                <g transform="matrix(12,0,0,12,834.227457,409.61101)">
                    <path d="M0.073,-0L0.073,-0.716L0.305,-0.716C0.393,-0.716 0.45,-0.712 0.477,-0.705C0.518,-0.694 0.552,-0.671 0.58,-0.635C0.607,-0.599 0.621,-0.553 0.621,-0.496C0.621,-0.452 0.613,-0.415 0.597,-0.385C0.581,-0.355 0.561,-0.331 0.536,-0.314C0.512,-0.297 0.487,-0.286 0.461,-0.28C0.427,-0.273 0.377,-0.27 0.312,-0.27L0.217,-0.27L0.217,-0L0.073,-0ZM0.217,-0.595L0.217,-0.392L0.296,-0.392C0.353,-0.392 0.391,-0.395 0.411,-0.403C0.43,-0.41 0.445,-0.422 0.456,-0.438C0.467,-0.454 0.472,-0.472 0.472,-0.494C0.472,-0.52 0.465,-0.541 0.449,-0.558C0.434,-0.575 0.415,-0.586 0.391,-0.59C0.374,-0.593 0.339,-0.595 0.287,-0.595L0.217,-0.595Z" style="fill:rgb(153,153,153);fill-rule:nonzero;"/>
                </g>
                <g transform="matrix(12,0,0,12,842.231364,409.61101)">
                    <path d="M0.073,-0L0.073,-0.716L0.377,-0.716C0.454,-0.716 0.51,-0.709 0.544,-0.697C0.579,-0.684 0.607,-0.661 0.627,-0.628C0.648,-0.595 0.659,-0.557 0.659,-0.515C0.659,-0.461 0.643,-0.417 0.611,-0.382C0.58,-0.347 0.533,-0.325 0.47,-0.316C0.501,-0.298 0.527,-0.278 0.547,-0.256C0.567,-0.234 0.595,-0.195 0.629,-0.14L0.717,-0L0.544,-0L0.439,-0.156C0.402,-0.211 0.377,-0.247 0.363,-0.261C0.35,-0.275 0.335,-0.285 0.32,-0.291C0.305,-0.296 0.28,-0.299 0.247,-0.299L0.218,-0.299L0.218,-0L0.073,-0ZM0.218,-0.413L0.325,-0.413C0.394,-0.413 0.437,-0.416 0.455,-0.422C0.472,-0.428 0.485,-0.438 0.495,-0.452C0.505,-0.466 0.51,-0.484 0.51,-0.506C0.51,-0.53 0.503,-0.549 0.49,-0.564C0.478,-0.579 0.459,-0.588 0.436,-0.592C0.424,-0.594 0.389,-0.595 0.331,-0.595L0.218,-0.595L0.218,-0.413Z" style="fill:rgb(153,153,153);fill-rule:nonzero;"/>
                </g>
                <g transform="matrix(12,0,0,12,850.897379,409.61101)">
                    <path d="M0.073,-0L0.073,-0.716L0.604,-0.716L0.604,-0.595L0.217,-0.595L0.217,-0.436L0.577,-0.436L0.577,-0.315L0.217,-0.315L0.217,-0.121L0.617,-0.121L0.617,-0L0.073,-0Z" style="fill:rgb(153,153,153);fill-rule:nonzero;"/>
                </g>
                <g transform="matrix(12,0,0,12,858.901285,409.61101)">
                    <path d="M0.036,-0.233L0.177,-0.247C0.185,-0.199 0.202,-0.165 0.228,-0.143C0.254,-0.12 0.289,-0.109 0.333,-0.109C0.38,-0.109 0.415,-0.119 0.438,-0.139C0.462,-0.159 0.474,-0.182 0.474,-0.208C0.474,-0.225 0.469,-0.239 0.459,-0.251C0.449,-0.263 0.431,-0.273 0.407,-0.282C0.39,-0.288 0.351,-0.299 0.291,-0.313C0.214,-0.333 0.159,-0.356 0.128,-0.384C0.084,-0.424 0.062,-0.472 0.062,-0.528C0.062,-0.565 0.072,-0.599 0.093,-0.631C0.114,-0.662 0.143,-0.687 0.182,-0.703C0.221,-0.72 0.268,-0.728 0.323,-0.728C0.413,-0.728 0.481,-0.708 0.526,-0.669C0.572,-0.63 0.595,-0.577 0.598,-0.511L0.453,-0.505C0.447,-0.542 0.434,-0.568 0.413,-0.584C0.393,-0.6 0.362,-0.608 0.322,-0.608C0.28,-0.608 0.247,-0.6 0.223,-0.583C0.208,-0.571 0.2,-0.557 0.2,-0.538C0.2,-0.521 0.207,-0.507 0.222,-0.495C0.24,-0.479 0.284,-0.463 0.354,-0.447C0.425,-0.43 0.477,-0.413 0.51,-0.395C0.544,-0.378 0.571,-0.353 0.59,-0.323C0.609,-0.292 0.618,-0.254 0.618,-0.208C0.618,-0.167 0.607,-0.129 0.584,-0.093C0.561,-0.057 0.529,-0.031 0.487,-0.013C0.446,0.004 0.394,0.013 0.332,0.013C0.241,0.013 0.172,-0.008 0.123,-0.05C0.075,-0.092 0.046,-0.153 0.036,-0.233Z" style="fill:rgb(153,153,153);fill-rule:nonzero;"/>
                </g>
                <g transform="matrix(12,0,0,12,866.905192,409.61101)">
                    <path d="M0.073,-0L0.073,-0.716L0.604,-0.716L0.604,-0.595L0.217,-0.595L0.217,-0.436L0.577,-0.436L0.577,-0.315L0.217,-0.315L0.217,-0.121L0.617,-0.121L0.617,-0L0.073,-0Z" style="fill:rgb(153,153,153);fill-rule:nonzero;"/>
                </g>
                <g transform="matrix(12,0,0,12,874.909098,409.61101)">
                    <path d="M0.073,-0L0.073,-0.716L0.377,-0.716C0.454,-0.716 0.51,-0.709 0.544,-0.697C0.579,-0.684 0.607,-0.661 0.627,-0.628C0.648,-0.595 0.659,-0.557 0.659,-0.515C0.659,-0.461 0.643,-0.417 0.611,-0.382C0.58,-0.347 0.533,-0.325 0.47,-0.316C0.501,-0.298 0.527,-0.278 0.547,-0.256C0.567,-0.234 0.595,-0.195 0.629,-0.14L0.717,-0L0.544,-0L0.439,-0.156C0.402,-0.211 0.377,-0.247 0.363,-0.261C0.35,-0.275 0.335,-0.285 0.32,-0.291C0.305,-0.296 0.28,-0.299 0.247,-0.299L0.218,-0.299L0.218,-0L0.073,-0ZM0.218,-0.413L0.325,-0.413C0.394,-0.413 0.437,-0.416 0.455,-0.422C0.472,-0.428 0.485,-0.438 0.495,-0.452C0.505,-0.466 0.51,-0.484 0.51,-0.506C0.51,-0.53 0.503,-0.549 0.49,-0.564C0.478,-0.579 0.459,-0.588 0.436,-0.592C0.424,-0.594 0.389,-0.595 0.331,-0.595L0.218,-0.595L0.218,-0.413Z" style="fill:rgb(153,153,153);fill-rule:nonzero;"/>
                </g>
                <g transform="matrix(12,0,0,12,883.358317,409.61101)">
                    <path d="M0.255,-0L-0,-0.716L0.156,-0.716L0.337,-0.186L0.513,-0.716L0.666,-0.716L0.41,-0L0.255,-0Z" style="fill:rgb(153,153,153);fill-rule:nonzero;"/>
                </g>
                <g transform="matrix(12,0,0,12,890.471598,409.61101)">
                    <path d="M0.718,-0L0.561,-0L0.499,-0.163L0.212,-0.163L0.153,-0L0,-0L0.279,-0.716L0.432,-0.716L0.718,-0ZM0.452,-0.283L0.354,-0.549L0.257,-0.283L0.452,-0.283Z" style="fill:rgb(153,153,153);fill-rule:nonzero;"/>
                </g>
                <g transform="matrix(12,0,0,12,898.246989,409.61101)">
                    <path d="M0.234,-0L0.234,-0.595L0.021,-0.595L0.021,-0.716L0.59,-0.716L0.59,-0.595L0.378,-0.595L0.378,-0L0.234,-0Z" style="fill:rgb(153,153,153);fill-rule:nonzero;"/>
                </g>
                <g transform="matrix(12,0,0,12,905.577067,409.61101)">
                    <rect x="0.068" y="-0.716" width="0.145" height="0.716" style="fill:rgb(153,153,153);fill-rule:nonzero;"/>
                </g>
                <g transform="matrix(12,0,0,12,908.911051,409.61101)">
                    <path d="M0.043,-0.354C0.043,-0.426 0.054,-0.488 0.076,-0.537C0.092,-0.574 0.115,-0.606 0.143,-0.635C0.171,-0.664 0.202,-0.686 0.235,-0.7C0.28,-0.719 0.331,-0.728 0.39,-0.728C0.495,-0.728 0.58,-0.695 0.643,-0.63C0.706,-0.564 0.738,-0.473 0.738,-0.357C0.738,-0.241 0.706,-0.151 0.644,-0.086C0.581,-0.02 0.497,0.012 0.392,0.012C0.285,0.012 0.201,-0.02 0.138,-0.085C0.075,-0.15 0.043,-0.24 0.043,-0.354ZM0.192,-0.358C0.192,-0.277 0.211,-0.216 0.249,-0.174C0.286,-0.132 0.333,-0.111 0.391,-0.111C0.449,-0.111 0.496,-0.132 0.533,-0.174C0.57,-0.215 0.588,-0.277 0.588,-0.36C0.588,-0.442 0.57,-0.504 0.534,-0.544C0.498,-0.584 0.451,-0.604 0.391,-0.604C0.332,-0.604 0.284,-0.584 0.247,-0.543C0.211,-0.502 0.192,-0.441 0.192,-0.358Z" style="fill:rgb(153,153,153);fill-rule:nonzero;"/>
                </g>
                <g transform="matrix(12,0,0,12,918.245035,409.61101)">
                    <path d="M0.074,-0L0.074,-0.716L0.215,-0.716L0.508,-0.238L0.508,-0.716L0.642,-0.716L0.642,-0L0.497,-0L0.208,-0.467L0.208,-0L0.074,-0Z" style="fill:rgb(153,153,153);fill-rule:nonzero;"/>
                </g>
                <g transform="matrix(12,0,0,12,930.245035,409.61101)">
                    <path d="M0.072,-0.716L0.336,-0.716C0.396,-0.716 0.441,-0.711 0.473,-0.702C0.515,-0.69 0.551,-0.668 0.581,-0.636C0.611,-0.605 0.633,-0.566 0.649,-0.52C0.665,-0.475 0.672,-0.418 0.672,-0.351C0.672,-0.292 0.665,-0.241 0.65,-0.199C0.632,-0.147 0.607,-0.104 0.574,-0.072C0.549,-0.048 0.515,-0.029 0.472,-0.015C0.44,-0.005 0.398,-0 0.344,-0L0.072,-0L0.072,-0.716ZM0.217,-0.595L0.217,-0.121L0.325,-0.121C0.365,-0.121 0.394,-0.123 0.412,-0.127C0.436,-0.133 0.455,-0.143 0.47,-0.157C0.486,-0.171 0.499,-0.194 0.508,-0.226C0.518,-0.258 0.523,-0.302 0.523,-0.357C0.523,-0.413 0.518,-0.455 0.508,-0.485C0.499,-0.514 0.485,-0.538 0.467,-0.554C0.45,-0.571 0.427,-0.582 0.4,-0.588C0.38,-0.592 0.341,-0.595 0.282,-0.595L0.217,-0.595Z" style="fill:rgb(153,153,153);fill-rule:nonzero;"/>
                </g>
                <g transform="matrix(12,0,0,12,938.911051,409.61101)">
                    <path d="M0.073,-0L0.073,-0.716L0.604,-0.716L0.604,-0.595L0.217,-0.595L0.217,-0.436L0.577,-0.436L0.577,-0.315L0.217,-0.315L0.217,-0.121L0.617,-0.121L0.617,-0L0.073,-0Z" style="fill:rgb(153,153,153);fill-rule:nonzero;"/>
                </g>
                <g transform="matrix(12,0,0,12,946.914957,409.61101)">
                    <path d="M0.073,-0L0.073,-0.716L0.305,-0.716C0.393,-0.716 0.45,-0.712 0.477,-0.705C0.518,-0.694 0.552,-0.671 0.58,-0.635C0.607,-0.599 0.621,-0.553 0.621,-0.496C0.621,-0.452 0.613,-0.415 0.597,-0.385C0.581,-0.355 0.561,-0.331 0.536,-0.314C0.512,-0.297 0.487,-0.286 0.461,-0.28C0.427,-0.273 0.377,-0.27 0.312,-0.27L0.217,-0.27L0.217,-0L0.073,-0ZM0.217,-0.595L0.217,-0.392L0.296,-0.392C0.353,-0.392 0.391,-0.395 0.411,-0.403C0.43,-0.41 0.445,-0.422 0.456,-0.438C0.467,-0.454 0.472,-0.472 0.472,-0.494C0.472,-0.52 0.465,-0.541 0.449,-0.558C0.434,-0.575 0.415,-0.586 0.391,-0.59C0.374,-0.593 0.339,-0.595 0.287,-0.595L0.217,-0.595Z" style="fill:rgb(153,153,153);fill-rule:nonzero;"/>
                </g>
                <g transform="matrix(12,0,0,12,954.028239,409.61101)">
                    <path d="M0.718,-0L0.561,-0L0.499,-0.163L0.212,-0.163L0.153,-0L0,-0L0.279,-0.716L0.432,-0.716L0.718,-0ZM0.452,-0.283L0.354,-0.549L0.257,-0.283L0.452,-0.283Z" style="fill:rgb(153,153,153);fill-rule:nonzero;"/>
                </g>
                <g transform="matrix(12,0,0,12,962.694254,409.61101)">
                    <path d="M0.073,-0L0.073,-0.716L0.377,-0.716C0.454,-0.716 0.51,-0.709 0.544,-0.697C0.579,-0.684 0.607,-0.661 0.627,-0.628C0.648,-0.595 0.659,-0.557 0.659,-0.515C0.659,-0.461 0.643,-0.417 0.611,-0.382C0.58,-0.347 0.533,-0.325 0.47,-0.316C0.501,-0.298 0.527,-0.278 0.547,-0.256C0.567,-0.234 0.595,-0.195 0.629,-0.14L0.717,-0L0.544,-0L0.439,-0.156C0.402,-0.211 0.377,-0.247 0.363,-0.261C0.35,-0.275 0.335,-0.285 0.32,-0.291C0.305,-0.296 0.28,-0.299 0.247,-0.299L0.218,-0.299L0.218,-0L0.073,-0ZM0.218,-0.413L0.325,-0.413C0.394,-0.413 0.437,-0.416 0.455,-0.422C0.472,-0.428 0.485,-0.438 0.495,-0.452C0.505,-0.466 0.51,-0.484 0.51,-0.506C0.51,-0.53 0.503,-0.549 0.49,-0.564C0.478,-0.579 0.459,-0.588 0.436,-0.592C0.424,-0.594 0.389,-0.595 0.331,-0.595L0.218,-0.595L0.218,-0.413Z" style="fill:rgb(153,153,153);fill-rule:nonzero;"/>
                </g>
                <g transform="matrix(12,0,0,12,971.36027,409.61101)">
                    <path d="M0.234,-0L0.234,-0.595L0.021,-0.595L0.021,-0.716L0.59,-0.716L0.59,-0.595L0.378,-0.595L0.378,-0L0.234,-0Z" style="fill:rgb(153,153,153);fill-rule:nonzero;"/>
                </g>
                <g transform="matrix(12,0,0,12,978.690348,409.61101)">
                    <path d="M0.071,-0L0.071,-0.716L0.287,-0.716L0.417,-0.228L0.545,-0.716L0.762,-0.716L0.762,-0L0.628,-0L0.628,-0.563L0.486,-0L0.347,-0L0.205,-0.563L0.205,-0L0.071,-0Z" style="fill:rgb(153,153,153);fill-rule:nonzero;"/>
                </g>
                <g transform="matrix(12,0,0,12,988.686442,409.61101)">
                    <path d="M0.073,-0L0.073,-0.716L0.604,-0.716L0.604,-0.595L0.217,-0.595L0.217,-0.436L0.577,-0.436L0.577,-0.315L0.217,-0.315L0.217,-0.121L0.617,-0.121L0.617,-0L0.073,-0Z" style="fill:rgb(153,153,153);fill-rule:nonzero;"/>
                </g>
                <g transform="matrix(12,0,0,12,996.690348,409.61101)">
                    <path d="M0.074,-0L0.074,-0.716L0.215,-0.716L0.508,-0.238L0.508,-0.716L0.642,-0.716L0.642,-0L0.497,-0L0.208,-0.467L0.208,-0L0.074,-0Z" style="fill:rgb(153,153,153);fill-rule:nonzero;"/>
                </g>
                <g transform="matrix(12,0,0,12,1005.356364,409.61101)">
                    <path d="M0.234,-0L0.234,-0.595L0.021,-0.595L0.021,-0.716L0.59,-0.716L0.59,-0.595L0.378,-0.595L0.378,-0L0.234,-0Z" style="fill:rgb(153,153,153);fill-rule:nonzero;"/>
                </g>
            </g>
        </g>
        <g transform="matrix(0.735921,0,0,0.735921,-62.434885,97.490153)">
            <g>
                <g transform="matrix(288,0,0,288,393.472511,262.172669)">
                    <path d="M0.308,-0.609C0.278,-0.609 0.252,-0.603 0.231,-0.59C0.211,-0.578 0.2,-0.561 0.2,-0.538C0.2,-0.523 0.205,-0.51 0.214,-0.5C0.224,-0.489 0.24,-0.479 0.263,-0.471C0.285,-0.462 0.318,-0.453 0.36,-0.443C0.423,-0.428 0.472,-0.411 0.508,-0.39C0.543,-0.369 0.568,-0.344 0.582,-0.316C0.596,-0.287 0.603,-0.251 0.603,-0.208C0.603,-0.159 0.59,-0.118 0.564,-0.085C0.538,-0.052 0.504,-0.027 0.462,-0.011C0.42,0.004 0.373,0.012 0.323,0.012C0.242,0.012 0.176,-0.008 0.126,-0.05C0.076,-0.091 0.045,-0.151 0.034,-0.228L0.178,-0.246C0.187,-0.199 0.203,-0.164 0.226,-0.142C0.25,-0.12 0.283,-0.109 0.327,-0.109C0.353,-0.109 0.376,-0.113 0.396,-0.12C0.416,-0.127 0.431,-0.138 0.442,-0.151C0.453,-0.164 0.459,-0.18 0.459,-0.198C0.459,-0.219 0.455,-0.235 0.447,-0.247C0.439,-0.259 0.423,-0.269 0.4,-0.279C0.377,-0.289 0.34,-0.299 0.291,-0.311C0.233,-0.325 0.187,-0.342 0.153,-0.363C0.119,-0.383 0.095,-0.407 0.081,-0.434C0.067,-0.46 0.06,-0.492 0.06,-0.527C0.06,-0.566 0.07,-0.601 0.09,-0.631C0.11,-0.662 0.139,-0.685 0.177,-0.702C0.216,-0.719 0.262,-0.728 0.315,-0.728C0.392,-0.728 0.453,-0.71 0.498,-0.675C0.544,-0.64 0.572,-0.588 0.583,-0.521L0.439,-0.505C0.434,-0.542 0.422,-0.569 0.4,-0.585C0.379,-0.601 0.348,-0.609 0.308,-0.609Z" style="fill:white;fill-rule:nonzero;"/>
                </g>
                <g transform="matrix(288,0,0,288,579.519386,262.172669)">
                    <rect x="0.075" y="-0.716" width="0.144" height="0.716" style="fill:white;fill-rule:nonzero;"/>
                </g>
                <g transform="matrix(288,0,0,288,664.316261,262.172669)">
                    <path d="M0.595,-0.496C0.595,-0.418 0.573,-0.361 0.53,-0.325C0.486,-0.288 0.419,-0.27 0.328,-0.27L0.219,-0.27L0.219,-0L0.075,-0L0.075,-0.716L0.328,-0.716C0.42,-0.716 0.488,-0.697 0.531,-0.66C0.574,-0.623 0.595,-0.568 0.595,-0.496ZM0.446,-0.493C0.446,-0.526 0.436,-0.551 0.417,-0.568C0.397,-0.586 0.367,-0.595 0.326,-0.595L0.219,-0.595L0.219,-0.391L0.326,-0.391C0.369,-0.391 0.4,-0.399 0.418,-0.417C0.437,-0.434 0.446,-0.46 0.446,-0.493Z" style="fill:white;fill-rule:nonzero;"/>
                </g>
                <g transform="matrix(288,0,0,288,842.488136,262.172669)">
                    <path d="M0.675,-0.353C0.675,-0.243 0.649,-0.157 0.597,-0.094C0.545,-0.031 0.464,-0 0.355,-0L0.075,-0L0.075,-0.716L0.356,-0.716C0.569,-0.716 0.675,-0.595 0.675,-0.353ZM0.526,-0.357C0.526,-0.416 0.519,-0.463 0.506,-0.497C0.493,-0.532 0.472,-0.556 0.444,-0.572C0.416,-0.587 0.379,-0.595 0.333,-0.595L0.219,-0.595L0.219,-0.121L0.335,-0.121C0.383,-0.121 0.42,-0.128 0.448,-0.143C0.476,-0.158 0.495,-0.183 0.508,-0.217C0.52,-0.251 0.526,-0.297 0.526,-0.357Z" style="fill:white;fill-rule:nonzero;"/>
                </g>
                <g transform="matrix(288,0,0,288,1049.347511,262.172669)">
                    <path d="M0.219,-0.595L0.219,-0.431L0.52,-0.431L0.52,-0.31L0.219,-0.31L0.219,-0.121L0.564,-0.121L0.564,-0L0.075,-0L0.075,-0.716L0.547,-0.716L0.547,-0.595L0.219,-0.595Z" style="fill:white;fill-rule:nonzero;"/>
                </g>
                <g transform="matrix(288,0,0,288,1225.550636,262.172669)">
                    <path d="M0.595,-0.496C0.595,-0.418 0.573,-0.361 0.53,-0.325C0.486,-0.288 0.419,-0.27 0.328,-0.27L0.219,-0.27L0.219,-0L0.075,-0L0.075,-0.716L0.328,-0.716C0.42,-0.716 0.488,-0.697 0.531,-0.66C0.574,-0.623 0.595,-0.568 0.595,-0.496ZM0.446,-0.493C0.446,-0.526 0.436,-0.551 0.417,-0.568C0.397,-0.586 0.367,-0.595 0.326,-0.595L0.219,-0.595L0.219,-0.391L0.326,-0.391C0.369,-0.391 0.4,-0.399 0.418,-0.417C0.437,-0.434 0.446,-0.46 0.446,-0.493Z" style="fill:white;fill-rule:nonzero;"/>
                </g>
            </g>
        </g>
        <g transform="matrix(5.225299,0,0,5.225299,-2689.376438,-2133.629125)">
            <g>
                <g transform="matrix(27.176796,0,0,27.176796,557.573508,492.201142)">
                    <path d="M0.072,-0.716L0.336,-0.716C0.396,-0.716 0.441,-0.711 0.473,-0.702C0.515,-0.69 0.551,-0.668 0.581,-0.636C0.611,-0.605 0.633,-0.566 0.649,-0.52C0.665,-0.475 0.672,-0.418 0.672,-0.351C0.672,-0.292 0.665,-0.241 0.65,-0.199C0.632,-0.147 0.607,-0.104 0.574,-0.072C0.549,-0.048 0.515,-0.029 0.472,-0.015C0.44,-0.005 0.398,-0 0.344,-0L0.072,-0L0.072,-0.716ZM0.217,-0.595L0.217,-0.121L0.325,-0.121C0.365,-0.121 0.394,-0.123 0.412,-0.127C0.436,-0.133 0.455,-0.143 0.47,-0.157C0.486,-0.171 0.499,-0.194 0.508,-0.226C0.518,-0.258 0.523,-0.302 0.523,-0.357C0.523,-0.413 0.518,-0.455 0.508,-0.485C0.499,-0.514 0.485,-0.538 0.467,-0.554C0.45,-0.571 0.427,-0.582 0.4,-0.588C0.38,-0.592 0.341,-0.595 0.282,-0.595L0.217,-0.595Z" style="fill:rgb(153,153,153);fill-rule:nonzero;"/>
                </g>
                <g transform="matrix(27.176796,0,0,27.176796,577.199719,492.201142)">
                    <path d="M0.074,-0L0.074,-0.716L0.564,-0.716L0.564,-0.595L0.218,-0.595L0.218,-0.425L0.517,-0.425L0.517,-0.304L0.218,-0.304L0.218,-0L0.074,-0Z" style="fill:rgb(153,153,153);fill-rule:nonzero;"/>
                </g>
                <g transform="matrix(27.176796,0,0,27.176796,593.800389,492.201142)">
                    <rect x="0.068" y="-0.716" width="0.145" height="0.716" style="fill:rgb(153,153,153);fill-rule:nonzero;"/>
                </g>
                <g transform="matrix(27.176796,0,0,27.176796,601.350973,492.201142)">
                    <path d="M0.073,-0L0.073,-0.716L0.377,-0.716C0.454,-0.716 0.51,-0.709 0.544,-0.697C0.579,-0.684 0.607,-0.661 0.627,-0.628C0.648,-0.595 0.659,-0.557 0.659,-0.515C0.659,-0.461 0.643,-0.417 0.611,-0.382C0.58,-0.347 0.533,-0.325 0.47,-0.316C0.501,-0.298 0.527,-0.278 0.547,-0.256C0.567,-0.234 0.595,-0.195 0.629,-0.14L0.717,-0L0.544,-0L0.439,-0.156C0.402,-0.211 0.377,-0.247 0.363,-0.261C0.35,-0.275 0.335,-0.285 0.32,-0.291C0.305,-0.296 0.28,-0.299 0.247,-0.299L0.218,-0.299L0.218,-0L0.073,-0ZM0.218,-0.413L0.325,-0.413C0.394,-0.413 0.437,-0.416 0.455,-0.422C0.472,-0.428 0.485,-0.438 0.495,-0.452C0.505,-0.466 0.51,-0.484 0.51,-0.506C0.51,-0.53 0.503,-0.549 0.49,-0.564C0.478,-0.579 0.459,-0.588 0.436,-0.592C0.424,-0.594 0.389,-0.595 0.331,-0.595L0.218,-0.595L0.218,-0.413Z" style="fill:rgb(153,153,153);fill-rule:nonzero;"/>
                </g>
                <g transform="matrix(27.176796,0,0,27.176796,628.527769,492.201142)">
                    <path d="M-0.001,0.012L0.176,-0.728L0.279,-0.728L0.1,0.012L-0.001,0.012Z" style="fill:rgb(153,153,153);fill-rule:nonzero;"/>
                </g>
                <g transform="matrix(27.176796,0,0,27.176796,643.628938,492.201142)">
                    <path d="M0.072,-0.716L0.336,-0.716C0.396,-0.716 0.441,-0.711 0.473,-0.702C0.515,-0.69 0.551,-0.668 0.581,-0.636C0.611,-0.605 0.633,-0.566 0.649,-0.52C0.665,-0.475 0.672,-0.418 0.672,-0.351C0.672,-0.292 0.665,-0.241 0.65,-0.199C0.632,-0.147 0.607,-0.104 0.574,-0.072C0.549,-0.048 0.515,-0.029 0.472,-0.015C0.44,-0.005 0.398,-0 0.344,-0L0.072,-0L0.072,-0.716ZM0.217,-0.595L0.217,-0.121L0.325,-0.121C0.365,-0.121 0.394,-0.123 0.412,-0.127C0.436,-0.133 0.455,-0.143 0.47,-0.157C0.486,-0.171 0.499,-0.194 0.508,-0.226C0.518,-0.258 0.523,-0.302 0.523,-0.357C0.523,-0.413 0.518,-0.455 0.508,-0.485C0.499,-0.514 0.485,-0.538 0.467,-0.554C0.45,-0.571 0.427,-0.582 0.4,-0.588C0.38,-0.592 0.341,-0.595 0.282,-0.595L0.217,-0.595Z" style="fill:rgb(153,153,153);fill-rule:nonzero;"/>
                </g>
                <g transform="matrix(27.176796,0,0,27.176796,663.255149,492.201142)">
                    <path d="M0.073,-0L0.073,-0.716L0.604,-0.716L0.604,-0.595L0.217,-0.595L0.217,-0.436L0.577,-0.436L0.577,-0.315L0.217,-0.315L0.217,-0.121L0.617,-0.121L0.617,-0L0.073,-0Z" style="fill:rgb(153,153,153);fill-rule:nonzero;"/>
                </g>
                <g transform="matrix(27.176796,0,0,27.176796,681.38186,492.201142)">
                    <path d="M0.255,-0L-0,-0.716L0.156,-0.716L0.337,-0.186L0.513,-0.716L0.666,-0.716L0.41,-0L0.255,-0Z" style="fill:rgb(153,153,153);fill-rule:nonzero;"/>
                </g>
            </g>
        </g>
        <g transform="matrix(0.965279,0,0,0.965279,33.527677,241.732254)">
            <path d="M208.071,75.903L965.626,75.903" style="fill:none;stroke:white;stroke-width:0.73px;"/>
        </g>
    </g>
</svg>
